<svg width="55" height="55" viewBox="0 0 55 55" fill="none" xmlns="http://www.w3.org/2000/svg">
<g id="icons8-facebook (2) 1">
<path id="Vector" d="M45.1 4.40002H9.89999C6.86399 4.40002 4.39999 6.86402 4.39999 9.90002V45.1C4.39999 48.136 6.86399 50.6 9.89999 50.6H45.1C48.136 50.6 50.6 48.136 50.6 45.1V9.90002C50.6 6.86402 48.136 4.40002 45.1 4.40002ZM40.7 20.9H38.5C36.146 20.9 35.2 21.45 35.2 23.1V26.4H40.7L39.6 31.9H35.2V48.4H29.7V31.9H25.3V26.4H29.7V23.1C29.7 18.7 31.9 15.4 36.3 15.4C39.49 15.4 40.7 16.5 40.7 16.5V20.9Z" fill="#FE9D0B"/>
</g>
</svg>
