<svg width="55" height="55" viewBox="0 0 55 55" fill="none" xmlns="http://www.w3.org/2000/svg">
<g id="entypo-social:github">
<path id="Vector" d="M36.245 25.0498C34.2705 25.0498 32.67 27.269 32.67 29.997C32.67 32.7305 34.2705 34.9498 36.245 34.9498C38.2195 34.9498 39.82 32.7305 39.82 29.997C39.8172 27.269 38.2195 25.0498 36.245 25.0498ZM48.6915 12.1715C49.1012 11.1678 49.1177 5.46425 46.9452 0C46.9452 0 41.965 0.54725 34.43 5.72C32.8487 5.28 30.173 5.0655 27.5027 5.0655C24.827 5.0655 22.1539 5.28 20.5727 5.72C13.035 0.54725 8.0547 0 8.0547 0C5.88495 5.46425 5.90695 11.1678 6.3112 12.1715C3.7592 14.9435 2.19995 18.2738 2.19995 22.8168C2.19995 42.5783 18.5982 42.8945 22.7342 42.8945L27.5027 42.9L32.2657 42.8945C36.4072 42.8945 52.8 42.5783 52.8 22.8168C52.8 18.2738 51.2435 14.9435 48.6915 12.1715ZM27.577 40.4663H27.423C17.0527 40.4663 8.9732 39.2315 8.9732 29.15C8.9732 26.7328 9.8257 24.4943 11.8525 22.6353C15.2267 19.536 20.9412 21.175 27.423 21.175H27.577C34.0587 21.175 39.776 19.536 43.153 22.6353C45.1742 24.4943 46.0267 26.7328 46.0267 29.15C46.0267 39.2315 37.95 40.4663 27.577 40.4663ZM18.7577 25.0498C16.7832 25.0498 15.1827 27.269 15.1827 29.997C15.1827 32.7305 16.7832 34.9498 18.7577 34.9498C20.735 34.9498 22.3354 32.7305 22.3354 29.997C22.3354 27.269 20.735 25.0498 18.7577 25.0498Z" fill="#F0A800"/>
</g>
</svg>
