<svg width="55" height="55" viewBox="0 0 55 55" fill="none" xmlns="http://www.w3.org/2000/svg">
<g id="icons8-instagram 1">
<path id="Vector" d="M37.4 3.30005H17.6C9.713 3.30005 3.3 9.71305 3.3 17.6V37.4001C3.3 45.287 9.713 51.7001 17.6 51.7001H37.4C45.287 51.7001 51.7 45.287 51.7 37.4001V17.6C51.7 9.71305 45.287 3.30005 37.4 3.30005ZM27.5 39.6C20.823 39.6 15.4 34.177 15.4 27.5C15.4 20.823 20.823 15.4 27.5 15.4C34.177 15.4 39.6 20.823 39.6 27.5C39.6 34.177 34.177 39.6 27.5 39.6ZM40.7 16.5C39.49 16.5 38.5 15.51 38.5 14.3C38.5 13.09 39.49 12.1 40.7 12.1C41.91 12.1 42.9 13.09 42.9 14.3C42.9 15.51 41.91 16.5 40.7 16.5Z" fill="#FE9D0B"/>
<path id="Vector_2" d="M37.4 27.5C37.4 32.956 32.956 37.4 27.5 37.4C22.044 37.4 17.6 32.956 17.6 27.5C17.6 22.044 22.044 17.6 27.5 17.6C32.956 17.6 37.4 22.044 37.4 27.5Z" fill="#FE9D0B"/>
</g>
</svg>
